<svg xmlns="http://www.w3.org/2000/svg" viewBox="0 0 100 100">
  <defs>
    <linearGradient id="heartGradient" x1="0%" y1="0%" x2="100%" y2="100%">
      <stop offset="0%" style="stop-color:#4CAF50;stop-opacity:1" />
      <stop offset="100%" style="stop-color:#2E7D32;stop-opacity:1" />
    </linearGradient>
  </defs>
  
  <!-- Corazón principal -->
  <path d="M50,85 C25,65 10,50 10,35 C10,20 20,10 32,10 C40,10 45,15 50,22 C55,15 60,10 68,10 C80,10 90,20 90,35 C90,50 75,65 50,85 Z" 
        fill="url(#heartGradient)" 
        stroke="#1B5E20" 
        stroke-width="2"/>
  
  <!-- Cruz médica en el centro -->
  <rect x="45" y="35" width="10" height="25" fill="white" rx="2"/>
  <rect x="35" y="45" width="30" height="10" fill="white" rx="2"/>
  
  <!-- Pulso ECG simplificado -->
  <path d="M20,30 L30,30 L35,20 L40,40 L45,30 L80,30" 
        fill="none" 
        stroke="white" 
        stroke-width="2" 
        opacity="0.7"/>
</svg>
